# AST/ASF file generated using VICON BodyLanguage
# -----------------------------------------------
:version 1.10
:name VICON
:units
  mass 1.0
  length 0.45
  angle deg
:documentation
   .ast/.asf automatically generated from VICON data using
   VICON BodyBuilder and BodyLanguage model FoxedUp or BRILLIANT.MOD
:root
   order TX TY TZ RX RY RZ
   axis XYZ
   position 0 0 0  
   orientation 0 0 0 
:bonedata
  begin
     id 1 
     name lhipjoint
     direction 0.440178 -0.822639 0.359871 
     length 2.53113 
     axis 0 0 0  XYZ
  end
  begin
     id 2 
     name lfemur
     direction 0.34202 -0.939693 0  
     length 7.88132  
     axis 0 0 20  XYZ
    dof rx ry rz
    limits (-160.0 20.0)
           (-70.0 70.0)
           (-60.0 70.0)
  end
  begin
     id 3 
     name ltibia
     direction 0.34202 -0.939693 0   
     length 8.43783   
     axis 0 0 20   XYZ
    dof rx
    limits (-10.0 170.0)
  end
  begin
     id 4 
     name lfoot
     direction 0.0886351 -0.243523 0.965837   
     length 2.63414   
     axis -90 7.62852e-016 20   XYZ
    dof rx rz
    limits (-45.0 90.0)
           (-70.0 20.0)
  end
  begin
     id 5 
     name ltoes
     direction 1.53703e-011 -4.21717e-011 1   
     length 1.31427   
     axis -90 7.62852e-016 20   XYZ
    dof rx
    limits (-90.0 20.0)
  end
  begin
     id 6 
     name rhipjoint
     direction -0.399779 -0.839773 0.367367   
     length 2.47948  
     axis 0 0 0  XYZ 
  end
  begin
     id 7 
     name rfemur
     direction -0.34202 -0.939693 0   
     length 7.74806   
     axis 0 0 -20   XYZ
    dof rx ry rz
    limits (-160.0 20.0)
           (-70.0 70.0)
           (-70.0 60.0)
  end
  begin
     id 8 
     name rtibia
     direction -0.34202 -0.939693 0   
     length 8.74432   
     axis 0 0 -20   XYZ
    dof rx
    limits (-10.0 170.0)
 end
 begin
     id 9 
     name rfoot
     direction -0.108514 -0.298139 0.948334   
     length 2.66102  
     axis -90 -7.62852e-016 -20   XYZ
    dof rx rz
    limits (-45.0 90.0)
           (-20.0 70.0)
  end
  begin
     id 10 
     name rtoes
     direction -1.53392e-011 -4.22077e-011 1   
     length 1.31983   
     axis -90 -7.62852e-016 -20   XYZ
    dof rx
    limits (-90.0 20.0)
  end
  begin
     id 11 
     name lowerback
     direction 0.0113257 0.999866 0.0118602   
     length 2.58694   
     axis 0 0 0   XYZ
    dof rx ry rz
    limits (-20.0 45.0)
           (-30.0 30.0)
           (-30.0 30.0)
  end
  begin
     id 12 
     name upperback
     direction -0.0164747 0.995193 -0.0965375   
     length 2.52368   
     axis 0 0 0   XYZ
    dof rx ry rz
    limits (-20.0 45.0)
           (-30.0 30.0)
           (-30.0 30.0)
  end
  begin
     id 13 
     name thorax
     direction -0.0194301 0.99433 -0.104552   
     length 2.56099   
     axis 0 0 0   XYZ
    dof rx ry rz
    limits (-20.0 45.0)
           (-30.0 30.0)
           (-30.0 30.0)
  end
  begin
     id 14 
     name lowerneck
     direction 0.0148543 0.995587 -0.092657   
     length 1.71582   
     axis 0 0 0   XYZ
    dof rx ry rz
    limits (-20.0 45.0)
           (-30.0 30.0)
           (-30.0 30.0)
  end
  begin
     id 15 
     name upperneck
     direction -0.0135467 0.993656 -0.111639   
     length 1.68937   
     axis 0 0 0   XYZ
    dof rx ry rz
    limits (-20.0 45.0)
           (-30.0 30.0)
           (-30.0 30.0)
  end
  begin
     id 16
     name head
     direction -0.00615349 0.999547 -0.029448  
     length 1.7462  
     axis 0 0 0   XYZ
    dof rx ry rz
    limits (-20.0 45.0)
           (-30.0 30.0)
           (-30.0 30.0)
  end
  begin
     id 17 
     name lclavicle
     direction 0.988267 0.149885 0.0293713  
     length 4.47222  
     axis 0 0 0   XYZ
    dof ry rz
    limits (-20.0 10.0)
           (0.0 20.0)
  end
  begin
     id 18 
     name lhumerus
     direction 1 -4.48986e-011 -1.14833e-027   
     length 5.37148   
     axis 180 -30 -90   XYZ
    dof rx ry rz
    limits (-60.0 90.0)
           (-90.0 90.0)
           (-90.0 90.0)
  end
  begin
     id 19
     name lradius
     direction 0.999998 0.00170963 -0.000987055   
     length 3.94212   
     axis 180 -30 -90   XYZ
    dof rx
    limits (-10.0 170.0)
  end
  begin
     id 20
     name lwrist
     direction 0.999998 7.53149e-005 -0.00194706   
     length 1.97106   
     axis 4.65056e-015 90 90   XYZ
    dof ry
    limits (-180.0 0.0)
 end
  begin
     id 21 
     name lhand
     direction 1 -4.48973e-011 -1.31746e-026   
     length 1.17917   
     axis 8.4065e-015 90 90   XYZ
    dof rx rz
    limits (-90.0 90.0)
           (-45.0 45.0)
  end
  begin
     id 22 
     name lfingers
     direction 1 -4.49107e-011 -2.63492e-026   
     length 0.950679   
     axis 1.6813e-014 90 90   XYZ
    dof rx
    limits (0.0 90.0)
  end
  begin
     id 23
     name lthumb
     direction 0.707107 -6.35048e-011 0.707107   
     length 1.36499   
     axis -90 45 2.85299e-015   XYZ
    dof rx rz
    limits (-45.0 45.0)
           (-45.0 45.0)
  end
  begin
     id 24 
     name rclavicle
     direction -0.996699 0.0642895 -0.0495725   
     length 4.62611  
     axis 0 0 0   XYZ 
    dof ry rz
    limits (-10.0 20.0)
           (-20.0 0.0)
  end
  begin
     id 25 
     name rhumerus
     direction -1 -4.48919e-011 -2.41059e-027  
     length 5.4981   
     axis 180 30 90   XYZ
    dof rx ry rz
    limits (-90.0 60.0)
           (-90.0 90.0)
           (-90.0 90.0)
  end
  begin
     id 26 
     name rradius
     direction -0.999999 0.00118101 -0.000681858   
     length 3.48381   
     axis 180 30 90   XYZ
    dof rx
    limits (-10.0 170.0)
  end
  begin
     id 27 
     name rwrist
     direction -0.999999 0.000321823 -0.00132288   
     length 1.7419   
     axis 4.65056e-015 -90 -90   XYZ
    dof ry
    limits (-180.0 0.0)
  end
  begin
     id 28
     name rhand
     direction -1 -4.49022e-011 -1.31746e-026   
     length 1.34932   
     axis 8.4065e-015 -90 -90   XYZ
    dof rx rz
    limits (-90.0 90.0)
           (-45.0 45.0)
  end
  begin
     id 29
     name rfingers
     direction -1 -4.49178e-011 -2.63492e-026   
     length 1.08785   
     axis 1.6813e-014 -90 -90   XYZ
    dof rx
    limits (0.0 90.0)
  end
  begin
     id 30
     name rthumb
     direction -0.707107 -6.34713e-011 0.707107   
     length 1.56195   
     axis -90 -45 -2.85299e-015   XYZ
    dof rx rz
    limits (-45.0 45.0)
           (-45.0 45.0)
  end
:hierarchy
  begin
    root lhipjoint rhipjoint lowerback
    lhipjoint lfemur
    lfemur ltibia
    ltibia lfoot
    lfoot ltoes
    rhipjoint rfemur
    rfemur rtibia
    rtibia rfoot
    rfoot rtoes
    lowerback upperback
    upperback thorax
    thorax lowerneck lclavicle rclavicle
    lowerneck upperneck
    upperneck head
    lclavicle lhumerus
    lhumerus lradius
    lradius lwrist
    lwrist lhand lthumb
    lhand lfingers
    rclavicle rhumerus
    rhumerus rradius
    rradius rwrist
    rwrist rhand rthumb
    rhand rfingers
  end

#!OML:ASF X:\für Bonn\!DataBase\2005_08_10_Bjorn_Final\c3d\bjorn.ASF
:FULLY-SPECIFIED
:DEGREES
16
root -22.4209 19.045 -29.5069 -354.979 365.725 -362.087
lowerback -7.50479 1.94568 -0.0776618
upperback 8.08599 2.87743 -1.84331
thorax 13.134 1.47859 -1.4359
lowerneck -0.873597 0.588097 0.861715
upperneck 11.8595 1.01952 -2.32804
head 4.04364 0.449646 -0.886998
rclavicle -5.1684e-015 2.14687e-014
rhumerus -23.8556 -14.9973 -92.3113
rradius 27.7553
rwrist 8.54699
rhand -11.2967 13.917
rfingers 7.12502
rthumb 14.7346 -15.5393
lclavicle -5.1684e-015 2.14687e-014
lhumerus -32.8435 -15.9571 91.7667
lradius 35.8513
lwrist -19.2964
lhand -17.455 -11.03
lfingers 7.12502
lthumb 8.79627 18.7666
rfemur -9.73707 -6.85543 19.9745
rtibia 31.3321
rfoot -22.6896 15.7565
rtoes -6.70544
lfemur -13.0736 5.99715 -19.4042
ltibia 34.8423
lfoot -20.4275 -8.90371
ltoes 0.23331
17
root -22.4122 19.0399 -29.4656 -354.963 365.575 -362.086
lowerback -7.45189 1.90434 -0.257536
upperback 8.11449 2.84781 -1.86318
thorax 13.1248 1.44883 -1.36398
lowerneck -0.883723 0.62352 0.805489
upperneck 11.7575 1.06048 -2.26879
head 4.00873 0.469904 -0.855171
rclavicle -4.96962e-015 8.74653e-015
rhumerus -24.0958 -14.9014 -92.3511
rradius 27.6276
rwrist 8.66699
rhand -11.1645 13.825
rfingers 7.12502
rthumb 14.862 -15.622
lclavicle -4.96962e-015 8.74653e-015
lhumerus -32.5991 -16.0707 91.8121
lradius 35.7422
lwrist -19.1742
lhand -17.72 -11.025
lfingers 7.12502
lthumb 8.54055 18.7823
rfemur -9.71989 -6.53483 19.9711
rtibia 31.5176
rfoot -22.9508 15.4893
rtoes -7.11537
lfemur -12.8958 6.16929 -19.4104
ltibia 34.797
lfoot -20.5469 -8.93674
ltoes 0.0880729
18
root -22.4039 19.0344 -29.4241 -354.931 365.434 -362.06
lowerback -7.40955 1.85502 -0.451641
upperback 8.14179 2.81168 -1.90364
thorax 13.1215 1.41586 -1.30756
lowerneck -0.912361 0.652616 0.766944
upperneck 11.6768 1.09234 -2.20723
head 3.98502 0.486346 -0.826225
rclavicle -3.93594e-014 3.18055e-015
rhumerus -24.3288 -14.7562 -92.4256
rradius 27.4901
rwrist 8.71163
rhand -11.0688 13.7542
rfingers 7.12502
rthumb 14.9542 -15.6859
lclavicle -3.93594e-014 3.18055e-015
lhumerus -32.3007 -16.0725 91.7853
lradius 35.614
lwrist -19.1638
lhand -17.984 -11.1275
lfingers 7.12502
lthumb 8.28578 18.69
rfemur -9.73518 -6.19167 19.9448
rtibia 31.7337
rfoot -23.1834 15.2336
rtoes -7.45147
lfemur -12.7365 6.35687 -19.435
ltibia 34.7453
lfoot -20.62 -9.06109
ltoes 0.223207
19
root -22.3954 19.0283 -29.3827 -354.905 365.293 -362.059
lowerback -7.33233 1.79582 -0.618746
upperback 8.16437 2.75662 -1.93735
thorax 13.0916 1.37617 -1.26338
lowerneck -0.950329 0.691916 0.741993
upperneck 11.602 1.14026 -2.17321
head 3.96592 0.510036 -0.808335
rclavicle -3.18055e-015 -1.59028e-014
rhumerus -24.5552 -14.638 -92.494
rradius 27.3274
rwrist 8.79037
rhand -10.9817 13.7339
rfingers 7.12502
rthumb 15.0382 -15.6999
lclavicle -3.18055e-015 -1.59028e-014
lhumerus -31.9886 -16.0176 91.7524
lradius 35.4908
lwrist -19.1695
lhand -18.4154 -11.2795
lfingers 7.12502
lthumb 7.86941 18.5541
rfemur -9.76509 -5.8935 19.9428
rtibia 31.9727
rfoot -23.3727 14.9934
rtoes -7.82145
lfemur -12.5676 6.49722 -19.4377
ltibia 34.6982
lfoot -20.7559 -9.12368
ltoes 0.113366
20
root -22.3876 19.0215 -29.3398 -354.883 365.143 -362.033
lowerback -7.27214 1.74908 -0.776238
upperback 8.20719 2.72293 -2.01283
thorax 13.1002 1.35013 -1.2657
lowerneck -1.01306 0.7397 0.768649
upperneck 11.4967 1.19366 -2.11263
head 3.94111 0.53968 -0.790359
rclavicle 1.70955e-014 2.22639e-014
rhumerus -24.7587 -14.5649 -92.6248
rradius 27.1713
rwrist 8.84442
rhand -10.9567 13.6577
rfingers 7.12502
rthumb 15.0622 -15.7744
lclavicle 1.70955e-014 2.22639e-014
lhumerus -31.6439 -16.0586 91.6579
lradius 35.4287
lwrist -19.0501
lhand -18.7708 -11.4202
lfingers 7.12502
lthumb 7.52634 18.4259
rfemur -9.81182 -5.63208 19.9099
rtibia 32.2418
rfoot -23.5143 14.7959
rtoes -8.23864
lfemur -12.3867 6.6558 -19.4636
ltibia 34.6373
lfoot -20.8717 -9.17439
ltoes 0.0394025
21
root -22.3782 19.0139 -29.2971 -354.865 365.005 -362.013
lowerback -7.19211 1.69807 -0.906846
upperback 8.24096 2.67919 -2.0913
thorax 13.0872 1.32214 -1.28875
lowerneck -1.04795 0.781426 0.800213
upperneck 11.4164 1.2398 -2.05579
head 3.91975 0.56586 -0.774928
rclavicle -2.46493e-014 2.38542e-014
rhumerus -24.9969 -14.4442 -92.7546
rradius 27.0479
rwrist 8.82715
rhand -10.9068 13.6077
rfingers 7.12502
rthumb 15.1102 -15.8207
lclavicle -2.46493e-014 2.38542e-014
lhumerus -31.2721 -16.0433 91.5454
lradius 35.3653
lwrist -18.9073
lhand -19.0415 -11.5179
lfingers 7.12502
lthumb 7.26506 18.3374
rfemur -9.86751 -5.37671 19.8789
rtibia 32.54
rfoot -23.5922 14.6223
rtoes -8.44345
lfemur -12.2024 6.76821 -19.4967
ltibia 34.5791
lfoot -21.0202 -9.1732
ltoes -0.220756
22
root -22.3695 19.0083 -29.253 -354.841 364.853 -361.97
lowerback -7.12395 1.64184 -1.06785
upperback 8.28706 2.63331 -2.17288
thorax 13.0949 1.29031 -1.29817
lowerneck -1.12278 0.827339 0.805412
upperneck 11.3239 1.29204 -1.99498
head 3.90162 0.593887 -0.75324
rclavicle 1.59028e-014 -1.03368e-014
rhumerus -25.205 -14.2683 -92.9032
rradius 26.9398
rwrist 8.73103
rhand -10.9061 13.4847
rfingers 7.12502
rthumb 15.111 -15.9437
lclavicle 1.59028e-014 -1.03368e-014
lhumerus -30.8829 -16.0312 91.4392
lradius 35.3762
lwrist -18.632
lhand -19.2592 -11.5391
lfingers 7.12502
lthumb 7.05499 18.3233
rfemur -9.94865 -5.15537 19.8161
rtibia 32.8776
rfoot -23.6373 14.5034
rtoes -8.70518
lfemur -12.0045 6.90162 -19.5477
ltibia 34.512
lfoot -21.1927 -9.19155
ltoes -0.557406
23
root -22.3607 19.0003 -29.2083 -354.836 364.715 -361.928
lowerback -7.03838 1.58218 -1.23816
upperback 8.34007 2.58186 -2.23991
thorax 13.0987 1.25406 -1.28783
lowerneck -1.17333 0.884521 0.790968
upperneck 11.2176 1.35912 -1.92284
head 3.87375 0.629078 -0.72379
rclavicle -6.75868e-015 2.38542e-015
rhumerus -25.4393 -14.101 -93.0168
rradius 26.8396
rwrist 8.68271
rhand -10.8901 13.4379
rfingers 7.12502
rthumb 15.1264 -15.9893
lclavicle -6.75868e-015 2.38542e-015
lhumerus -30.4927 -15.9084 91.2973
lradius 35.4194
lwrist -18.4982
lhand -19.3744 -11.561
lfingers 7.12502
lthumb 6.94377 18.3051
rfemur -10.0228 -4.95376 19.7533
rtibia 33.2607
rfoot -23.643 14.3729
rtoes -8.90013
lfemur -11.7952 7.05045 -19.5908
ltibia 34.4517
lfoot -21.3582 -9.22844
ltoes -0.807147
24
root -22.3516 18.9909 -29.1635 -354.827 364.588 -361.907
lowerback -6.95044 1.52093 -1.36521
upperback 8.38481 2.52206 -2.3081
thorax 13.0934 1.21804 -1.30448
lowerneck -1.20787 0.925064 0.755929
upperneck 11.1273 1.40404 -1.83703
head 3.84771 0.653109 -0.687158
rclavicle 2.34566e-014 -2.06736e-014
rhumerus -25.6926 -13.8347 -93.1612
rradius 26.7526
rwrist 8.45942
rhand -10.9855 13.3863
rfingers 7.12502
rthumb 15.0344 -16.0479
lclavicle 2.34566e-014 -2.06736e-014
lhumerus -30.1729 -15.8745 91.1702
lradius 35.5437
lwrist -18.2864
lhand -19.5165 -11.5452
lfingers 7.12502
lthumb 6.80654 18.3254
rfemur -10.1309 -4.81061 19.7074
rtibia 33.6966
rfoot -23.5812 14.2905
rtoes -9.05185
lfemur -11.5845 7.11937 -19.618
ltibia 34.3899
lfoot -21.5494 -9.21042
ltoes -1.00317
